# xmcd CD database file
# Copyright (C) 1997 Ti Kan
# 
# Track frame offsets:
#     150
#     7637
#     20007
#     30335
#     45282
#     58080
#     68015
#     70480
#     79322
#     91787
#     101740
# 
# Disc length: 1791 seconds
# 
# Revision: 1
# Processed by: cddbd v1.4b41PL1 Copyright (c) Steve Scherf et al.
# Submitted via: DiscPlay 4.0.4
# 
DISCID=7d06fd0b
DTITLE=Riders in the Sky - Merry Christmas from Harmony Ranch
DYEAR=1900
DGENRE=
TTITLE0=Here Comes Santa Claus
TTITLE1=Silver Bells
TTITLE2=Rudolph the Red-Nosed Reindeer
TTITLE3=White Christmas
TTITLE4=Navidad Y Ano Nuevo
TTITLE5=Christmas Times's A Comin'
TTITLE6=Deck The Bunkhouse Walls
TTITLE7=Sidemeat's Christmas Goose
TTITLE8=Riding Home on Christmas Eve
TTITLE9=Merry Christmas From Harmony Ranch/Jingle Bells
TTITLE10=Christmas Carol Medley/The Greatest Gifts
EXTD=
EXTT0=
EXTT1=
EXTT2=
EXTT3=
EXTT4=
EXTT5=
EXTT6=
EXTT7=
EXTT8=
EXTT9=
EXTT10=
PLAYORDER=
